<svg width="393" height="386" viewBox="0 0 393 386" fill="none" xmlns="http://www.w3.org/2000/svg">
<path d="M420.326 458.603C441.427 474.687 451.977 482.728 453.515 494.247C455.052 505.767 447.01 516.255 430.926 537.233L367.559 619.879C357.313 633.243 352.19 639.925 344.754 642.75C337.319 645.575 329.051 643.981 312.516 640.793L7.86614 582.053C-32.1733 574.333 -52.193 570.473 -57.7028 555.782C-63.2125 541.092 -50.6929 525.05 -25.6536 492.965C147.94 270.527 178.933 274.61 420.326 458.603Z" fill="#FC9D49" fill-opacity="0.5"/>
<path d="M-54.7069 501.431C-70.7902 522.532 -78.8319 533.082 -90.3511 534.62C-101.87 536.157 -112.359 528.115 -133.337 512.031L-215.983 448.664C-229.346 438.418 -236.028 433.295 -238.853 425.859C-241.678 418.424 -240.084 410.156 -236.896 393.621L-178.157 88.9712C-170.436 48.9318 -166.576 28.912 -151.886 23.4023C-137.196 17.8926 -121.153 30.4122 -89.0686 55.4515C133.369 229.045 129.286 260.038 -54.7069 501.431Z" fill="#FC9D49"/>
</svg>
