<svg width="393" height="393" viewBox="0 0 393 393" fill="none" xmlns="http://www.w3.org/2000/svg">
<path d="M533.68 65.3329C555.638 50.3814 566.616 42.9057 578.027 45.0857C589.438 47.2656 596.85 58.2055 611.673 80.0852L679.561 180.293C689.006 194.234 693.728 201.205 694.061 209.152C694.394 217.099 690.271 224.441 682.025 239.123L511.603 542.584C491.651 578.112 481.675 595.875 466.011 596.476C450.347 597.077 439.037 580.127 416.416 546.227C241.207 283.642 254.957 255.127 533.68 65.3329Z" fill="#E66C00" fill-opacity="0.4"/>
<path d="M413.578 576.589C428.529 598.546 436.005 609.525 433.825 620.936C431.645 632.347 420.705 639.758 398.825 654.581L298.618 722.469C284.676 731.914 277.706 736.636 269.758 736.969C261.811 737.302 254.47 733.18 239.787 724.934L-63.6739 554.512C-99.2012 534.56 -116.965 524.584 -117.566 508.919C-118.167 493.255 -101.217 481.945 -67.3161 459.325C195.269 284.115 223.783 297.865 413.578 576.589Z" fill="#E66C00"/>
</svg>
