<svg width="420" height="640" viewBox="0 0 420 640" fill="none" xmlns="http://www.w3.org/2000/svg">
<path d="M569.097 65.2929C587.926 46.5432 597.34 37.1683 597.352 25.5532C597.364 13.9381 588.022 4.59559 569.337 -14.0894L484.941 -98.4847C472.816 -110.61 466.754 -116.672 458.871 -118.462C450.988 -120.252 442.901 -117.402 426.729 -111.702L83.8457 9.14564C46.0535 22.4654 27.1573 29.1253 23.7748 44.2716C20.3923 59.418 34.6609 73.4851 63.1982 101.619C288.258 323.5 318.969 314.379 569.097 65.2929Z" fill="#A88DFE" fill-opacity="0.6"/>
<path d="M540.765 210.221C565.588 200.961 578 196.331 588.556 201.16C599.113 205.988 603.713 218.368 612.913 243.128L673.175 405.304C679.148 421.378 682.135 429.415 680.478 437.327C678.822 445.239 672.863 451.404 660.945 463.732L321.899 814.449C294.088 843.218 280.182 857.602 265.025 854.396C249.867 851.19 242.982 832.419 229.211 794.877C83.4963 397.633 104.935 372.799 540.765 210.221Z" fill="#694CFF" fill-opacity="0.8"/>
</svg>
