<svg width="393" height="393" viewBox="0 0 393 393" fill="none" xmlns="http://www.w3.org/2000/svg">
<path d="M-20.3017 459.557C-36.2177 438.375 -44.1757 427.785 -42.5237 416.278C-40.8716 404.772 -30.2778 396.865 -9.09024 381.051L65.907 325.073C79.402 315.001 86.1494 309.965 94.0731 309.269C101.997 308.573 109.519 312.355 124.563 319.921L380.655 448.708C417.106 467.04 435.331 476.205 436.629 491.852C437.926 507.499 421.533 519.488 388.746 543.464C177.824 697.711 149.412 685.416 -20.3017 459.557Z" fill="#694CFF"/>
<path d="M-3.15942 124.412C22.7699 118.968 35.7346 116.246 45.4576 122.617C55.1806 128.988 57.8553 141.934 63.2046 167.826L82.1396 259.475C85.5467 275.966 87.2502 284.211 84.524 291.684C81.7977 299.156 75.1845 304.367 61.9581 314.79L-163.19 492.208C-195.237 517.461 -211.261 530.088 -225.984 524.634C-240.707 519.181 -244.622 499.253 -252.451 459.396C-302.82 202.992 -279.647 182.464 -3.15942 124.412Z" fill="#4F4DF4" fill-opacity="0.4"/>
</svg>
