<svg width="352" height="393" viewBox="0 0 352 393" fill="none" xmlns="http://www.w3.org/2000/svg">
<path d="M504.011 357.839C524.482 374.51 534.717 382.845 535.872 394.428C537.026 406.012 528.617 416.228 511.799 436.661L474.885 481.509C464.184 494.511 458.833 501.012 451.305 503.578C443.776 506.145 435.568 504.267 419.153 500.509L217.104 454.263C177.191 445.127 157.235 440.56 152.272 425.597C147.31 410.634 160.478 395.168 186.814 364.236C310.591 218.859 339.849 224.148 504.011 357.839Z" fill="#3A2894" fill-opacity="0.4"/>
<path d="M346.747 -26.7649C358.629 -50.34 364.57 -62.1276 375.635 -65.7446C386.699 -69.3615 398.484 -63.3447 422.054 -51.311L473.787 -24.8983C488.785 -17.2411 496.284 -13.4125 500.409 -6.61133C504.533 0.189868 504.463 8.60929 504.321 25.4481L502.578 232.715C502.234 273.659 502.062 294.131 488.515 302.193C474.968 310.255 457.034 300.719 421.165 281.646C252.583 192.004 251.461 162.293 346.747 -26.7649Z" fill="#A99AF7"/>
</svg>
