<svg width="656" height="732" viewBox="0 0 656 732" fill="none" xmlns="http://www.w3.org/2000/svg">
<path d="M11.5948 -95.286C-9.45521 -111.381 -19.9802 -119.428 -21.5075 -130.936C-23.0349 -142.444 -14.9986 -152.926 1.07393 -173.888L112.916 -319.758C123.162 -333.121 128.286 -339.803 135.721 -342.628C143.157 -345.453 151.424 -343.859 167.959 -340.671L647.531 -248.205C687.479 -240.502 707.453 -236.651 712.982 -222.014C718.511 -207.377 706.067 -191.276 681.179 -159.075C411.581 189.751 379.24 185.814 11.5948 -95.286Z" fill="#A99AF7" fill-opacity="0.4"/>
<path d="M713.318 -159.975C729.413 -181.025 737.46 -191.55 748.968 -193.077C760.476 -194.604 770.958 -186.568 791.92 -170.495L937.79 -58.653C951.153 -48.4069 957.835 -43.2838 960.66 -35.8482C963.485 -28.4126 961.891 -20.1451 958.703 -3.61026L866.237 475.962C858.534 515.91 854.683 535.883 840.046 541.412C825.409 546.941 809.308 534.497 777.107 509.61C428.281 240.011 432.218 207.671 713.318 -159.975Z" fill="#4F4DF4" fill-opacity="0.4"/>
</svg>
